<svg width="45" height="31" viewBox="0 0 45 31" fill="none" xmlns="http://www.w3.org/2000/svg">
<path d="M21.9375 0.1875C21.0023 0.1875 20.25 0.918945 20.25 1.82812C20.25 2.7373 21.0023 3.46875 21.9375 3.46875H23.7445L26.1773 7.84375H15.6727L13.7461 5.24609C13.4297 4.81543 12.9164 4.5625 12.375 4.5625H8.4375C7.50234 4.5625 6.75 5.29395 6.75 6.20312C6.75 7.1123 7.50234 7.84375 8.4375 7.84375H11.5102L13.0641 9.94238L11.1937 13.5723C10.4906 13.4014 9.75234 13.3125 9 13.3125C4.02891 13.3125 0 17.2295 0 22.0625C0 26.8955 4.02891 30.8125 9 30.8125C13.5914 30.8125 17.3742 27.4697 17.9297 23.1562H21.375C21.9727 23.1562 22.5211 22.8486 22.8305 22.3496L28.793 12.54L30.3188 15.2812C28.2938 16.8877 27 19.3281 27 22.0625C27 26.8955 31.0289 30.8125 36 30.8125C40.9711 30.8125 45 26.8955 45 22.0625C45 17.2295 40.9711 13.3125 36 13.3125C35.0508 13.3125 34.1367 13.4561 33.2789 13.7227L26.3953 1.33594C26.0016 0.625 25.2422 0.1875 24.4125 0.1875H21.9375ZM32.2453 18.7607L34.5164 22.8418C34.9594 23.6416 35.9859 23.9355 36.8016 23.5049C37.6172 23.0742 37.9266 22.0762 37.4836 21.2832L35.2125 17.2021C35.4656 17.1611 35.7328 17.1406 36 17.1406C38.7984 17.1406 41.0625 19.3418 41.0625 22.0625C41.0625 24.7832 38.7984 26.9844 36 26.9844C33.2016 26.9844 30.9375 24.7832 30.9375 22.0625C30.9375 20.791 31.4297 19.6357 32.2453 18.7607ZM9.36562 23.1562H13.9359C13.4227 25.3506 11.4047 26.9844 9 26.9844C6.20156 26.9844 3.9375 24.7832 3.9375 22.0625C3.9375 19.3418 6.20156 17.1406 9 17.1406C9.11953 17.1406 9.23906 17.1475 9.35859 17.1543L7.65703 20.4697C7.02422 21.707 7.94531 23.1631 9.36562 23.1631V23.1562ZM11.7352 19.875L15.3 12.9502L20.4258 19.8682L20.4187 19.875H11.7281H11.7352ZM18.1055 11.125H25.7273L22.2891 16.7852L18.0984 11.125H18.1055Z" fill="black"/>
</svg>
