<svg width="37" height="36" viewBox="0 0 37 36" fill="none" xmlns="http://www.w3.org/2000/svg">
<path fill-rule="evenodd" clip-rule="evenodd" d="M18 12C18 18.177 14.5 23.264 10 23.927V33H26V24.046H21.273C20.5359 24.0463 19.8202 23.7978 19.2419 23.3406C18.6636 22.8835 18.2566 22.2445 18.0867 21.5272C17.9169 20.8099 17.9941 20.0563 18.306 19.3883C18.6178 18.7204 19.146 18.1773 19.805 17.847C19.514 16.8674 19.6 15.8144 20.0462 14.895C20.4923 13.9756 21.2664 13.2565 22.216 12.879C22.0505 12.1596 22.0493 11.4121 22.2126 10.6922C22.376 9.97228 22.6995 9.29847 23.1593 8.72091C23.6191 8.14336 24.2032 7.67693 24.8681 7.35634C25.5331 7.03575 26.2618 6.86926 27 6.86926C27.7382 6.86926 28.4669 7.03575 29.1319 7.35634C29.7968 7.67693 30.3809 8.14336 30.8407 8.72091C31.3004 9.29847 31.624 9.97228 31.7873 10.6922C31.9507 11.4121 31.9495 12.1596 31.784 12.879C32.7336 13.2565 33.5077 13.9756 33.9538 14.895C34.4 15.8144 34.486 16.8674 34.195 17.847C34.854 18.1773 35.3822 18.7204 35.694 19.3883C36.0059 20.0563 36.0831 20.8099 35.9133 21.5272C35.7434 22.2445 35.3364 22.8835 34.7581 23.3406C34.1798 23.7978 33.4641 24.0463 32.727 24.046H28V33H34.5C34.8978 33 35.2794 33.158 35.5607 33.4393C35.842 33.7206 36 34.1022 36 34.5C36 34.8978 35.842 35.2794 35.5607 35.5607C35.2794 35.842 34.8978 36 34.5 36H1.5C1.10218 36 0.720644 35.842 0.43934 35.5607C0.158035 35.2794 0 34.8978 0 34.5C0 34.1022 0.158035 33.7206 0.43934 33.4393C0.720644 33.158 1.10218 33 1.5 33H8V23.927C3.5 23.264 0 18.177 0 12C0 5.373 4.03 0 9 0C13.97 0 18 5.373 18 12Z" fill="#121214"/>
</svg>
